<svg xmlns="http://www.w3.org/2000/svg" xml:space="preserve" id="Layer_1" x="0" y="0" version="1.1" viewBox="0 0 192 192"><style>.st0{fill:#12a9d4}</style><path d="M74.4 117.1c-.1-.2-.2-.5-.3-.7-.3-.9-.7-1.9-1.2-2.7-.6-1-1.4-1.8-2.3-2.4-1-.6-2-1.1-3.1-1.4s-2.3-.4-3.4-.2c-1.4.1-2.7.5-4 1.1-1.5.6-2.8 1.6-3.9 2.8-.7.7-1.3 1.4-1.8 2.2-.3.5-.6.9-.8 1.4-.6 1.2-1.1 2.4-1.4 3.7-.1.6-.2 1.2-.3 1.7-.1.6-.1 1.1-.1 1.7 0 1.8.2 3.6.8 5.3.4 1.1.8 2.2 1.3 3.2.3.7.8 1.3 1.2 1.8 1.2 1.6 2.7 3 4.3 4.1 1.2.9 2.6 1.5 4 2 .8.3 1.6.4 2.4.6s1.5.2 2.3.3c1 0 1.9 0 2.8-.1 1.3-.1 2.5-.5 3.7-.9 1.6-.5 3-1.3 4.3-2.4 1.3-1 2.5-2.1 3.5-3.5.5-.6.9-1.3 1.3-2 .6-1.2 1.1-2.4 1.6-3.6.4-1.2.6-2.4.7-3.6.1-1 .1-2 .1-3.1 0-1.2.1-2.5.2-3.7.2-1.9.5-3.7 1.1-5.6.6-1.8 1.3-3.6 2.3-5.2.4-.7.9-1.3 1.4-1.9.9-1.2 1.9-2.5 2.8-3.7 1.3-1.7 2.3-3.7 3.1-5.7.5-1.3.8-2.7 1.1-4.1.2-1.1.4-2.1.5-3.2 0-.3 0-.7.1-1 0-1.5 0-2.9-.2-4.4-.1-1.4-.4-2.7-.8-4-.1-.4-.2-.7-.3-1.1-.5-1.9-1.2-3.7-2.2-5.4-.8-1.3-1.5-2.6-2.4-3.8-.3-.4-.6-.8-.9-1.1-.9-1-1.9-2-2.9-3-.7-.7-1.5-1.3-2.3-1.8-.7-.6-1.7-1.1-2.6-1.7-.2-.1-.4-.2-.6-.2h-.1v.2c0 .1.1.1.1.2l.2.2c1.3 1.3 2.4 2.8 3.3 4.3.7 1.1 1.3 2.2 1.8 3.4.4 1.1.8 2.2 1.1 3.3.4 1.5.7 2.9.9 4.5v3.8c0 2.3-.6 4.4-1.5 6.5-.7 1.5-1.7 2.8-2.8 3.9-1 1-2.1 1.6-3.4 2-1.3.5-2.7.7-4.1.5-.8-.1-1.6-.3-2.4-.5-1.4-.4-2.8-1.1-4-2-1.4-1-2.9-1.9-4.4-2.7-2-1.1-4-2.1-6.1-3-2.6-1.1-5.3-1.9-8-2.5-1.7-.4-3.3-.6-5-.8-1-.1-2-.2-3-.2-.4 0-.9-.1-1.3-.1-1.4-.1-2.9-.1-4.3 0h-2.1l-.1-.1s0-.1.1-.2c.2-.2.4-.3.6-.5.6-.5 1.2-.9 1.7-1.5.8-.8 1.5-1.7 1.9-2.8.5-1.1.9-2.2 1.1-3.4.1-.5.1-1 .2-1.6 0-.1 0-.1-.1-.2 0-.1-.2-.1-.2-.1l-.2.2c-.3.3-.5.7-.7 1-.8 1.2-1.8 2.3-2.9 3.2-.9.9-1.8 1.6-2.8 2.2-1.3.8-2.8 1.4-4.3 1.9-1.6.5-3.2.8-4.9.8h-1.4c-.4 0-.8-.1-1.2-.1-.6-.1-1.1-.1-1.7-.2-2.1-.3-4-1.1-5.8-2.2-.6-.4-1.2-.7-1.7-1.1-1.2-.8-2.2-1.9-3-3-.5-.6-.9-1.2-1.3-1.8-.7-1.1-1.3-2.2-1.7-3.5-.3-.8-.5-1.5-.7-2.3-.2-.6-.4-1-.9-1.3-.6-.3-1.1-.8-1.5-1.3-1.3-1.3-1.9-2.8-2.2-4.6-.1-1.2-.1-2.4.2-3.5.4-1.4 1-2.6 1.9-3.6.8-.9 1.8-1.5 2.9-1.9.5-.2 1.1-.4 1.6-.5 1.4-.4 2.8-.7 4.2-1s2.7-.7 4.1-1.1c2.2-.6 4.4-1.5 6.4-2.7 1.4-.8 2.8-1.7 4-2.7 1.5-1.3 3-2.6 4.4-4.1.7-.8 1.5-1.6 2.2-2.4 1.4-1.5 2.8-2.9 4.4-4.2.7-.6 1.5-1.2 2.2-1.7 1.3-1 2.7-1.8 4.1-2.5 1.5-.8 3-1.5 4.5-2.2q2.25-.9 4.5-1.5 3.45-.9 6.9-1.5c1.2-.2 2.5-.4 3.7-.5l2.4-.3c1.2-.1 2.3-.2 3.5-.3 1.1 0 2.1-.1 3.2-.1h2.9c.2 0 .3-.1.4-.3l.3-.6c.6-1.4 1.3-2.7 2.3-3.9.5-.7 1.1-1.3 1.7-1.9 1.6-1.6 3.5-2.8 5.6-3.5 1.4-.5 2.8-.6 4.2-.4 2.1.4 3.9 1.4 5.2 3.2.9 1.2 1.6 2.5 1.9 4 .3 1.1.4 2.2.5 3.3 0 1.3-.1 2.6-.5 3.9-.4 1.4-.8 2.7-1.5 4-.4.8-.9 1.5-1.4 2.2-.4.6-.8 1.1-1.3 1.6s-.9 1-1.4 1.4c-.6.5-1.1 1-1.6 1.4-.1.1-.2.2-.2.3 0 0 0 .1.1.2 0 0 .1.1.2.1.9-.1 1.8-.3 2.6-.7.8-.3 1.6-.7 2.3-1.1s1.3-.9 1.9-1.4c.7-.7 1.4-1.4 2.1-2.2q1.2-1.5 1.8-3.3l.3-.9c0-.1.1-.2.1-.3.1-.2.3-.3.4-.2.2.1.4.1.6.2 1.6.6 3.2 1.2 4.8 1.9.9.4 1.8.7 2.7 1.1.1.1.3.1.4.1s.3-.1.2-.2c0-.2-.1-.4-.1-.5-.3-.8-.4-1.5-.6-2.3-.1-.9-.1-1.7-.1-2.6.1-1.7.5-3.2 1.2-4.7.3-.7.7-1.4 1.2-2 1.1-1.3 2.3-2.6 3.7-3.5.5-.3.9-.6 1.4-.9 1-.6 1.9-1.3 2.6-2.2 1.1-1.3 1.9-2.7 2.5-4.4.3-.9.5-1.9.6-2.9 0-.3.1-.6.1-.9 0-.2.2-.3.3-.2.2.1.5.1.7.2.7.3 1.5.7 2.2 1 1.7.9 3.4 1.9 5 3.1 2.2 1.6 4.4 3.4 6.2 5.6.5.5.9 1.1 1.3 1.7.3.5.6.9.9 1.4 1.5 2.1 2.6 4.5 3.5 6.9.5 1.4 1 2.9 1.3 4.3.2.9.3 1.9.5 2.8.2 1.1.2 2.2.3 3.2.1 1.2.1 2.5 0 3.7s-.2 2.3-.4 3.5c-.2 1.1-.4 2.1-.7 3.2-.5 1.9-1.2 3.8-2 5.7-.3.6-.5 1.1-.8 1.7-1.2 2.1-2.5 4.2-4.2 6-.6.7-1.2 1.3-1.9 2-1.1 1.1-2.3 2.2-3.6 3.1-1.4 1-2.9 1.9-4.4 2.7-.7.4-1.4.6-2.1.9-.9.4-1.8.7-2.7 1-1.1.3-2.1.6-3.2.8-.9.2-1.8.3-2.7.4-.2 0-.4.1-.6.1l-.1.1s0 .1.1.1c.1.1.2.1.3.2.4.1.7.3 1.1.3 1.2.3 2.3.6 3.5.7.9.1 1.7.2 2.6.2h3.4c1.5-.1 3.1-.3 4.6-.6 1-.2 1.9-.4 2.9-.7 1.6-.5 3.2-1.2 4.8-2 1.6-.7 3-1.7 4.4-2.6 1.6-1 2.9-2.3 4.3-3.6.2-.1.3-.3.4-.5 2.3-2.5 4.3-5.2 5.8-8.2 1.2-2.5 2.2-5.1 2.8-7.8.3-1.4.5-2.9.6-4.3 0-.2 0-.4.1-.6 0-.1.1-.2.2-.3 0-.1.2 0 .3.1.6.6 1.2 1.2 1.7 1.9.8 1 1.7 2 2.5 3.1.4.5.7.9 1 1.4.9 1.4 1.9 2.8 2.7 4.3 1.2 2 2.2 4.2 3.1 6.4.9 2.3 1.7 4.6 2.3 7 .3 1.1.5 2.2.7 3.4.1.4.1.7.2 1.1.2 1.2.3 2.4.4 3.6.1 1.7.1 3.4.1 5.1 0 1.4-.1 2.7-.3 4.1-.1.8-.2 1.6-.4 2.4-.4 2.1-.9 4.2-1.6 6.3-.8 2.7-1.9 5.2-3.1 7.7-.3.6-.7 1.2-1 1.8-.3.5-.6 1.1-.8 1.6 0 0 0 .1.1.2h.3c.2-.1.4-.2.6-.4.4-.3.8-.5 1.2-.8.7-.6 1.5-1.1 2.2-1.7.6-.5 1.1-1 1.7-1.6 2.2-2.2 3.9-4.8 5.2-7.6.8-1.7 1.4-3.4 1.8-5.3.2-1 .5-1.9.6-2.9 0-.3.1-.5.2-.8h.2c.1.2.2.3.2.5.2.9.5 1.7.7 2.6.5 2 1 4.1 1.3 6.2.2.9.3 1.7.4 2.6.2 1.2.4 2.5.5 3.7.1.7.1 1.4.2 2 .2 1.3.2 2.6.3 3.9v.7c0 2.2.1 4.5 0 6.7 0 .6-.1 1.1-.1 1.7v.6c-.1 2.3-.4 4.5-.7 6.7-.5 3.7-1.3 7.3-2.3 10.8-.5 1.8-1.1 3.6-1.7 5.4-.3.8-.6 1.7-.9 2.5-.6 1.7-1.4 3.3-2.2 4.9l-1.8 3.6q-1.95 3.6-4.2 6.9c-.2.4-.5.7-.7 1.1-.1.1-.2.2-.2.3h-.2l-.1-.1v-.4c0-.7.1-1.5.1-2.2.1-1.1.1-2.2.1-3.3v-1.9q0-2.7-.3-5.4c-.1-.9-.2-1.7-.2-2.6 0-.5-.1-1-.2-1.5-.2-1.5-.5-2.9-.8-4.4 0-.2-.1-.3-.2-.5 0 0-.1-.1-.1 0-.1 0-.1 0-.2.1s-.1.2-.1.3c-.3 1.5-.6 3-.9 4.6-.3 1.5-.6 2.9-1.1 4.3-.4 1.3-.7 2.6-1.1 3.8s-.8 2.5-1.3 3.7c-.7 1.7-1.4 3.5-2.2 5.2-.2.5-.4.9-.7 1.4-.5 1-1.1 2.1-1.6 3.1-1 2-2.2 3.8-3.5 5.6-.9 1.4-1.8 2.7-2.8 4-1.6 2-3.2 4-5 5.9-1.6 1.7-3.3 3.3-5 4.9-.6.5-1.1 1-1.7 1.4l-3.6 2.7c-.3.2-.6.4-.8.5h-.1c-.1 0-.1-.1 0-.2.3-.4.6-.9.8-1.3.8-1.2 1.5-2.4 2.2-3.6.9-1.6 1.8-3.3 2.6-5 .4-.8.8-1.7 1.1-2.5.7-1.7 1.4-3.4 2-5.2.4-1 .7-2.1 1-3.2.5-1.8 1-3.6 1.5-5.5.3-1.2.6-2.4.7-3.6v-.4l-.1-.1c-.1 0-.2.1-.2.2l-.9 1.5c-.8 1.3-1.5 2.7-2.3 4-.5.7-1 1.5-1.5 2.2-1 1.3-2 2.7-3 4-.7.9-1.5 1.8-2.3 2.7-.7.7-1.3 1.5-2 2.2-2 2.2-4.2 4.2-6.4 6.1-1.7 1.5-3.5 2.8-5.4 4.1-1.7 1.2-3.5 2.3-5.3 3.3-3.7 2.1-7.5 3.8-11.4 5.3-2.8 1.1-5.7 1.9-8.6 2.6-2.2.5-4.4.9-6.7 1.1-.7.1-1.4.2-2 .3-.4 0-.9 0-1.3.1v-.2c.3-.2.5-.4.8-.5 1-.6 1.9-1.1 2.9-1.7 1.5-.9 2.9-1.7 4.4-2.7 1.3-.9 2.7-1.8 4-2.9 1.2-1 2.4-1.9 3.6-2.9l3.6-3.3c2.1-2.1 4.1-4.3 5.9-6.6.8-1 1.6-1.9 2.3-2.9.2-.2.4-.5.5-.8v-.3c0-.1-.2-.1-.3-.1s-.2.1-.3.1c-1.2.5-2.3.9-3.5 1.4s-2.3.9-3.5 1.3c-1.4.4-2.8.9-4.2 1.3-1.6.5-3.3.9-4.9 1.2-1.2.3-2.3.5-3.5.6-.6.1-1.3.2-1.9.3-.1 0-.3 0-.4-.1v-.1c.1-.1.1-.2.2-.3 1.1-.9 2.3-1.7 3.4-2.6 2.6-2.2 5-4.7 7.1-7.5 1-1.3 1.9-2.6 2.8-4 1.7-2.9 3.2-5.9 4.3-9.1.8-2.1 1.3-4.3 1.8-6.5.3-1.3.5-2.7.6-4 .3-2.3.3-4.7.3-7.1 0-1.3-.2-2.7-.3-4-.1-1.5-.4-2.9-.6-4.3 0-.2-.1-.3-.1-.5 0-.1-.1-.2-.2-.2l-.1.1c-.1.3-.2.6-.2.9-.2.9-.3 1.8-.5 2.6-.7 3-1.5 5.9-2.8 8.7-1.5 3.5-3.4 6.7-5.7 9.7-1.2 1.6-2.5 3-3.8 4.4q-1.95 2.1-4.2 3.9c-1 .8-1.9 1.5-3 2.2-3.6 2.4-7.4 4.3-11.5 5.6-1.8.6-3.7 1-5.6 1.3-.8.1-1.7.2-2.5.3-1.4.2-2.8.2-4.3.2-1.3 0-2.6-.2-3.9-.3-1.9-.2-3.8-.6-5.6-1.1-2.8-.8-5.4-1.8-8-3.1-2-1.1-3.9-2.3-5.7-3.7-2.6-2.1-4.7-4.6-6.6-7.4-1.2-1.8-2.2-3.8-3-5.8-.9-2-1.6-4.1-2-6.2-.2-.8-.3-1.7-.5-2.6s-.2-1.7-.3-2.6v-3.1c0-1.3.1-2.7.3-4q.15-1.65.6-3.3c1.2-4.8 3.4-8.9 6.8-12.3 1.2-1.2 2.6-2.3 4-3.3 2.3-1.6 4.9-2.5 7.6-3.2 1-.2 1.9-.4 2.9-.5 1.7-.1 3.4-.1 5.1.2 1.1.2 2.3.5 3.4.9 1.9.7 3.6 1.7 5 3.1.9.8 1.7 1.7 2.3 2.7.4.7.8 1.4 1.1 2.1.6 1.6 1.1 3.2 1.2 4.9v.9c-.1 1.1-.2 2.2-.5 3.2-.7.1-.7.2-.8.3M54.4 46c0-.3-.1-.6-.1-1-.1-.8-.5-1.5-.8-2.1-1.2-2.2-3.8-2.9-5.4-2.7-1.1.2-2.1.6-3.1 1.2-.4.2-.7.5-.9.8-.7.9-1.3 1.9-1.6 3-.2.8-.3 1.6-.2 2.4 0 .1 0 .3.1.3h.2c.1-.1.2-.2.3-.4.2-.4.4-.7.7-1 .4-.5 1-.7 1.6-.8.3 0 .7 0 1 .1 1.8.4 2.8 2.8 1.8 4.5q-.3.6-.9.9c-.1 0-.2.1-.2.1-.1.1-.2.2-.2.3.1.1.2.1.3.2.3.1.6.1 1 .1 1.4 0 2.6-.4 3.8-1 .4-.2.8-.5 1.1-.8.9-1 1.5-2.4 1.5-4.1" class="st0"/><path d="M70.6 132.9c1.9 0 3.3-.4 4.6-1 .4-.2.9-.4 1.3-.6 1.3-.7 2.4-1.7 3.3-2.9.6-.7 1.1-1.5 1.5-2.3.1-.2.3-.5.4-.7h.1c.1 0 .1 0 .1.1 0 .6 0 1.1-.1 1.7-.4 2-1.2 3.7-2.4 5.3-.8 1.1-1.7 2-2.7 2.8-.4.3-.9.6-1.4.9-1.2.6-2.4 1.1-3.7 1.4-1.8.4-3.6.4-5.4-.1-.4-.1-.8-.2-1.2-.4-1.8-.6-3.3-1.7-4.6-3.1-.9-1-1.7-2.1-2.4-3.4-.5-1.1-.9-2.2-1.1-3.4-.2-1-.2-1.9-.1-2.9.2-1.8.8-3.5 1.8-5 .7-1 1.5-1.8 2.5-2.4l.9-.6c1.6-.8 3.3-1.1 5-.7.1 0 .2.1.2.1.1 0 .1.3 0 .3-.1.1-.2.2-.3.2-.3.1-.7.2-1 .4-.6.2-1.1.5-1.7.9-.7.5-1.3 1.1-1.7 1.8-.6 1-1.1 2.1-1.3 3.3-.3 1.7-.1 3.3.6 4.9 1 2.1 2.5 3.6 4.6 4.5q2.55.9 4.2.9M64.3 11.1c1.6 0 3.1.6 4.4 1.6 1.3 1.1 2.2 2.6 2.6 4.3.1.4.2.8.3 1.3v.4c0 .1-.1.3-.2.4-.3.1-.5.1-.8.1-1.7.2-3.4.3-5.1.5-2 .3-4 .7-6.1 1.1-1.2.2-2.3.5-3.5.7-.1 0-.2 0-.3.1-.2 0-.4-.1-.4-.4v-.5c.2-1 .4-2 .7-2.9.9-2.4 2.3-4.3 4.4-5.7.8-.5 1.7-.8 2.6-1 .5.1.9.1 1.4 0M30.2 86.8c0 .4-.1 1-.1 1.5 0 .4-.1.9-.1 1.3-.1 1.1-.3 2.2-.7 3.2-.2.5-.4.9-.8 1.2q-.45.45-1.2.6-.6.15-1.2 0c-.9-.1-1.6-.6-2.1-1.4-.2-.4-.4-.8-.5-1.2-.2-.7-.4-1.5-.6-2.2-.2-1.4-.4-2.8-.4-4.2 0-.3 0-.6.1-.8 0-.1.2-.2.3-.2h.4c1.8.4 3.7.4 5.5.3h.9c.3 0 .4.2.4.5.1.4.1.8.1 1.4M21.9 93.5c-.8 0-1.3-.2-1.8-.6-.6-.4-1-1-1.3-1.6-.7-1.3-1.2-2.6-1.6-4-.3-1.2-.5-2.4-.7-3.6-.1-.3-.1-.7-.1-1v-.3c0-.1.1-.2.2-.1.1 0 .2 0 .3.1 1 .5 2 .9 3.1 1.3.1 0 .2.1.2.1.2.1.3.2.3.4.1.4.2.7.2 1.1.3 2.6 1 5 1.8 7.5.1.2.1.4.1.5s-.1.3-.2.3c-.3-.1-.4-.1-.5-.1" class="st0"/><path d="M0 0h192v192H0z" style="fill:none"/></svg>